# File produced by Open Asset Import Library (http://www.assimp.sf.net)
# (assimp v5.0.0)

mtllib brace.mtl

# 44 vertex positions
v  0.224235 -11.7228 9.9055119
v  -0.275765 -11.7228 9.9055128
v  0.224235 -11.222799 9.9055119
v  -0.275765 -11.222799 9.9055128
v  -0.275765 -11.722796 39.905514
v  0.224235 -11.722796 39.905514
v  0.224235 -11.222797 39.905514
v  -0.275765 -11.222797 39.905514
v  0.224235 -11.722796 39.405514
v  -0.275765 -11.722796 39.405514
v  0.224235 -11.222797 39.405514
v  -0.275765 -11.222797 39.405514
v  0.224235 -10.222795 39.905514
v  -0.275765 -10.222795 39.905514
v  0.224235 -10.222795 39.405514
v  -0.275765 -10.222795 39.405514
v  -0.275765 -11.7228 10.405513
v  0.224235 -11.7228 10.405513
v  0.224235 -11.222799 10.405513
v  -0.275765 -11.222799 10.405513
v  -0.27899399 11.621464 9.9055119
v  0.22100601 11.621464 9.9055138
v  0.22100601 11.121464 9.9055138
v  -0.27899399 11.121464 9.9055119
v  0.22100601 11.621466 39.905514
v  -0.27899399 11.621466 39.905514
v  0.22100601 11.121466 39.905514
v  -0.27899399 11.121466 39.905514
v  -0.27899399 11.621466 39.405514
v  0.22100601 11.621466 39.405514
v  -0.27899399 11.121465 39.405514
v  0.22100601 11.121465 39.405514
v  0.22100601 10.121465 39.905514
v  -0.27899399 10.121465 39.905514
v  -0.27899399 10.121465 39.405514
v  0.22100601 10.121465 39.405514
v  0.22100601 11.621464 10.405513
v  -0.27899399 11.621464 10.405513
v  -0.27899399 11.121464 10.405513
v  0.22100601 11.121464 10.405513
v  -0.27899399 -10.218599 39.405514
v  0.22100601 -10.218599 39.405518
v  0.22100601 -10.218599 39.905518
v  -0.27899399 -10.218599 39.905518

# 4 UV coordinates
vt 0 1 0
vt 0 0 0
vt 1 1 0
vt 1 0 0

# 9 vertex normals
vn -3.0000001e-06 -0 -1
vn 0 0 1
vn 0 -1 0
vn 1 0 0
vn -1 0 0
vn 0 0 -1
vn 0 1 0
vn 3.0000001e-06 0 -1
vn 6.0000002e-06 0 -1

# Mesh '' with 76 faces
usemtl DefaultMaterial
f  1/1/1 2/2/1 3/3/1
f  3/3/1 2/2/1 4/4/1
f  5/1/2 6/2/2 7/4/2
f  7/4/2 8/3/2 5/1/2
f  9/1/3 6/2/3 10/3/3
f  10/3/3 6/2/3 5/4/3
f  6/1/4 9/2/4 7/3/4
f  7/3/4 9/2/4 11/4/4
f  10/1/5 5/2/5 8/4/5
f  8/4/5 12/3/5 10/1/5
f  8/1/2 7/2/2 13/4/2
f  13/4/2 14/3/2 8/1/2
f  7/1/4 11/2/4 13/3/4
f  13/3/4 11/2/4 15/4/4
f  12/1/5 8/2/5 14/4/5
f  14/4/5 16/3/5 12/1/5
f  11/1/6 12/2/6 15/3/6
f  15/3/6 12/2/6 16/4/6
f  13/1/7 15/2/7 14/3/7
f  14/3/7 15/2/7 16/4/7
f  10/1/3 17/2/3 18/4/3
f  18/4/3 9/3/3 10/1/3
f  17/1/3 2/2/3 18/3/3
f  18/3/3 2/2/3 1/4/3
f  9/1/4 18/2/4 19/4/4
f  19/4/4 11/3/4 9/1/4
f  18/1/4 1/2/4 3/4/4
f  3/4/4 19/3/4 18/1/4
f  2/1/5 17/2/5 4/3/5
f  4/3/5 17/2/5 20/4/5
f  17/1/5 10/2/5 20/3/5
f  20/3/5 10/2/5 12/4/5
f  11/1/7 19/2/7 12/3/7
f  12/3/7 19/2/7 20/4/7
f  21/1/8 22/2/8 23/4/8
f  23/4/8 24/3/8 21/1/8
f  25/1/2 26/2/2 27/3/2
f  27/3/2 26/2/2 28/4/2
f  29/1/7 26/2/7 30/3/7
f  30/3/7 26/2/7 25/4/7
f  26/1/5 29/2/5 28/3/5
f  28/3/5 29/2/5 31/4/5
f  30/1/4 25/2/4 27/4/4
f  27/4/4 32/3/4 30/1/4
f  27/1/2 28/2/2 33/3/2
f  33/3/2 28/2/2 34/4/2
f  28/1/5 31/2/5 34/3/5
f  34/3/5 31/2/5 35/4/5
f  32/1/4 27/2/4 33/4/4
f  33/4/4 36/3/4 32/1/4
f  31/1/9 32/2/9 36/4/9
f  36/4/9 35/3/9 31/1/9
f  30/1/7 37/2/7 29/3/7
f  29/3/7 37/2/7 38/4/7
f  37/1/7 22/2/7 38/3/7
f  38/3/7 22/2/7 21/4/7
f  29/1/5 38/2/5 31/3/5
f  31/3/5 38/2/5 39/4/5
f  38/1/5 21/2/5 39/3/5
f  39/3/5 21/2/5 24/4/5
f  22/1/4 37/2/4 40/4/4
f  40/4/4 23/3/4 22/1/4
f  37/1/4 30/2/4 32/4/4
f  32/4/4 40/3/4 37/1/4
f  31/1/3 39/2/3 40/4/3
f  40/4/3 32/3/3 31/1/3
f  35/1/9 36/2/9 41/3/9
f  41/3/9 36/2/9 42/4/9
f  36/1/4 33/2/4 42/3/4
f  42/3/4 33/2/4 43/4/4
f  34/1/5 35/2/5 41/4/5
f  41/4/5 44/3/5 34/1/5
f  33/1/2 34/2/2 43/3/2
f  43/3/2 34/2/2 44/4/2
f  44/1/3 41/2/3 42/4/3
f  42/4/3 43/3/3 44/1/3

